<svg width="14" height="13" viewBox="0 0 14 13" fill="none" xmlns="http://www.w3.org/2000/svg">
<path fill-rule="evenodd" clip-rule="evenodd" d="M5.125 12.625H10.75C11.2688 12.625 11.7125 12.3125 11.9 11.8625L13.7875 7.45625C13.8438 7.3125 13.875 7.1625 13.875 7V5.75C13.875 5.0625 13.3125 4.5 12.625 4.5H8.68125L9.275 1.64375L9.29375 1.44375C9.29375 1.1875 9.1875 0.95 9.01875 0.78125L8.35625 0.125L4.2375 4.24375C4.0125 4.46875 3.875 4.78125 3.875 5.125V11.375C3.875 12.0625 4.4375 12.625 5.125 12.625ZM5.125 5.125L7.8375 2.4125L7 5.75H12.625V7L10.75 11.375H5.125V5.125ZM0.125 5.125H2.625V12.625H0.125V5.125Z" fill="#323C47"/>
</svg>
