<svg width="24" height="24" viewBox="0 0 24 24" fill="none" xmlns="http://www.w3.org/2000/svg">
<path fill-rule="evenodd" clip-rule="evenodd" d="M11.3063 15.925L11.6625 14.1188C11.7375 13.75 11.6375 13.3688 11.4 13.0813C11.1625 12.7937 10.8125 12.625 10.4375 12.625H7V11.95L8.60625 8.25H13.6625C13.775 8.25 13.875 8.35 13.875 8.4625V13.3625L11.3063 15.925ZM10.75 18.25L14.7563 14.2438C14.9937 14.0062 15.125 13.6875 15.125 13.3562V8.4625C15.125 7.65625 14.4688 7 13.6625 7H8.6C8.15625 7 7.75 7.23125 7.525 7.60625L5.85625 11.45C5.7875 11.6062 5.75 11.775 5.75 11.95V12.625C5.75 13.3125 6.3125 13.875 7 13.875H10.4375L9.8625 16.7812C9.83125 16.9187 9.85 17.0687 9.9125 17.1937C10.0563 17.475 10.2375 17.7313 10.4625 17.9563L10.75 18.25ZM17 13.875H18.25V7H17C16.6562 7 16.375 7.28125 16.375 7.625V13.25C16.375 13.5938 16.6562 13.875 17 13.875Z" fill="white"/>
</svg>
