<svg width="24" height="24" viewBox="0 0 24 24" fill="none" xmlns="http://www.w3.org/2000/svg">
<path fill-rule="evenodd" clip-rule="evenodd" d="M22.5276 22C23.8392 22 24.3761 21.1208 23.7199 20.0463L13.1933 2.80587C12.5372 1.73138 11.4635 1.73138 10.8073 2.80587L0.280041 20.0463C-0.376114 21.1208 0.16074 22 1.47305 22H22.5276Z" fill="#FFCF00"/>
<path fill-rule="evenodd" clip-rule="evenodd" d="M11.044 17.8426C11.26 18.0586 11.526 18.1666 11.842 18.1666C12.158 18.1666 12.424 18.0586 12.64 17.8426C12.856 17.6266 12.964 17.3606 12.964 17.0446C12.964 16.7286 12.856 16.4626 12.64 16.2466C12.424 16.0306 12.158 15.9226 11.842 15.9226C11.526 15.9226 11.26 16.0306 11.044 16.2466C10.828 16.4626 10.72 16.7286 10.72 17.0446C10.72 17.3606 10.828 17.6266 11.044 17.8426ZM12.76 15.1426L13 9.14258H10.78L11.02 15.1426H12.76Z" fill="white"/>
</svg>
