<?xml version="1.0" encoding="UTF-8"?>
<svg width="51px" height="40px" viewBox="0 0 51 40" version="1.1" xmlns="http://www.w3.org/2000/svg" xmlns:xlink="http://www.w3.org/1999/xlink">
    <title>8base-backend@1x</title>
    <defs>
        <linearGradient x1="50%" y1="1.23259516e-30%" x2="50%" y2="100%" id="linearGradient-1">
            <stop stop-color="#E83B34" offset="0%"></stop>
            <stop stop-color="#5B92FF" offset="100%"></stop>
        </linearGradient>
    </defs>
    <g id="Page-1" stroke="none" stroke-width="1" fill="none" fill-rule="evenodd">
        <g id="Documentation" transform="translate(-239.000000, -639.000000)">
            <g id="8base-backend" transform="translate(239.000000, 640.000000)">
                <g id="Icon-/-Data" fill="url(#linearGradient-1)" fill-rule="nonzero">
                    <path d="M29.4,22.5789474 C33.096,22.5789474 36.12,25.2473684 36.645,28.7163158 C36.687,28.6957895 36.708,28.6957895 36.75,28.6957895 C39.648,28.6957895 42,30.9947368 42,33.8273684 C42,36.66 39.648,38.9589474 36.75,38.9589474 L36.75,38.9589474 L23.1,39 C19.614,39 16.8,36.2494737 16.8,32.8421053 C16.8,29.5578947 19.446,26.8894737 22.764,26.7252632 C23.94,24.2826316 26.46,22.5789474 29.4,22.5789474 Z M18.9,0 C28.8256517,0 37.1262281,3.20532914 37.7609969,8.23489241 C37.7711751,8.28614943 37.7795605,8.338643 37.7858718,8.39175495 L37.8,8.63113516 L37.800679,22.0355574 C36.6374229,20.8211728 35.2052129,19.8626684 33.6008545,19.2472954 L33.6009817,14.6142281 C30.1179529,16.5865675 24.7956509,17.7174515 18.9,17.7174515 C13.0049081,17.7174515 7.68305637,16.5867819 4.20000908,14.6147891 L4.2,19.674 L4.20629169,19.7440944 C4.32765606,20.543957 6.19684552,21.5351084 9.12027596,22.2900689 L10.0143801,22.5059232 C10.7839442,22.679389 11.6133198,22.8359709 12.4921429,22.9692813 L13.5698022,23.1176747 C15.2199035,23.322283 17.0167834,23.4432133 18.9,23.4432133 L18.9412375,23.4423827 C17.0017848,24.2568243 15.3675722,25.6244986 14.244085,27.3397375 C10.2360007,26.9718604 6.73038251,26.1198998 4.19977707,24.8545035 L4.2,29.072 L4.20621395,29.1424724 C4.29714714,29.7454341 5.38159082,30.4571722 7.16234042,31.0945093 L7.89548591,31.3401539 C8.27923236,31.4606614 8.68824191,31.5773903 9.12027596,31.6889608 L10.0143801,31.9048152 C10.7839442,32.078281 11.6133198,32.2348629 12.4921429,32.3681733 L12.610327,32.3840865 C12.6034661,32.5359362 12.6,32.6886329 12.6,32.8421053 C12.6,34.1871832 12.8637535,35.4712373 13.3435407,36.6476243 C13.3277289,36.6460036 13.3115206,36.6441729 13.2953215,36.6423341 L12.1303491,36.4938277 C5.24412834,35.5170519 0.274605659,33.0045922 0.0110129222,29.3666962 L0.007,29.268 L0,29.1574509 L0,8.63113516 C0,8.50122457 0.0123470206,8.37413273 0.035956612,8.25091964 C0.655134035,3.21253111 8.96320372,0 18.9,0 Z M29.4,26.6842105 C27.363,26.6842105 25.725,28.2852632 25.725,30.2763158 L25.725,30.2763158 L25.725,30.7894737 L23.1,30.7894737 C21.945,30.7894737 21,31.7131579 21,32.8421053 C21,33.9710526 21.945,34.8947368 23.1,34.8947368 L23.1,34.8947368 L36.771,34.8947368 L36.8829004,34.8885577 C37.39764,34.8314246 37.8014,34.3856842 37.821,33.8684211 C37.821,33.2936842 37.359,32.8421053 36.771,32.8421053 L36.771,32.8421053 L33.075,32.8421053 L33.075,30.2763158 C33.075,28.2852632 31.437,26.6842105 29.4,26.6842105 Z M18.9,4.10526316 C10.6733384,4.10526316 4.2,6.72777213 4.2,8.85872576 C4.2,10.9896794 10.6733384,13.6121884 18.9,13.6121884 C27.1266616,13.6121884 33.6,10.9896794 33.6,8.85872576 C33.6,6.72777213 27.1266616,4.10526316 18.9,4.10526316 Z" id="Combined-Shape"></path>
                </g>
                <path d="M40,-0.0666666667 C42.3486569,-0.0666666667 44.4287779,0.845228885 45.9237059,2.33709407 C47.419323,3.82964689 48.3331843,5.90653263 48.3331843,8.25128845 C48.3331843,10.2868968 47.620486,11.7708408 46.4125379,13.1552875 C47.3926581,13.8411616 48.1711957,14.6819038 48.7433101,15.6473416 C49.5025823,16.9286062 49.9,18.4340582 49.9,20.106191 C49.9,22.7683319 48.7720694,25.1576949 46.9841765,26.8913833 C45.1677939,28.6526977 42.6705876,29.7333333 40,29.7333333 C37.3295755,29.7333333 34.8323161,28.6526653 33.0158684,26.8912878 C31.2279818,25.1576055 30.1,22.7682792 30.1,20.106191 C30.1,18.4341413 30.4974773,16.9287518 31.2567268,15.6475254 C31.8295662,14.6808644 32.6093185,13.8392131 33.5907163,13.152564 C32.3909862,11.7597511 31.7031903,10.2540649 31.7031903,8.25128845 C31.7031903,5.90425593 32.6096522,3.82615918 34.0977992,2.33375792 C35.5832472,0.844063465 37.6523785,-0.0666666667 40,-0.0666666667 Z M40.1912931,16.6922374 C39.2761311,16.6922374 38.44811,17.0631923 37.8488956,17.6633467 C37.2491712,18.2640119 36.8787234,19.0941043 36.8787234,20.0114155 C36.8787234,20.92884 37.2491166,21.7589119 37.8487992,22.3595352 C38.4480248,22.9597009 39.2760898,23.3305936 40.1912931,23.3305936 C41.106665,23.3305936 41.9348315,22.9597185 42.534117,22.3595487 C43.1338529,21.758928 43.5042553,20.9288489 43.5042553,20.0114155 C43.5042553,19.0940954 43.1337983,18.2639958 42.5340206,17.6633332 C41.9347463,17.0631747 41.1066238,16.6922374 40.1912931,16.6922374 Z M39.9815415,6.33607306 C39.4393711,6.33607306 38.958612,6.55970071 38.610518,6.91278235 C38.2484645,7.28002346 38.0276596,7.78615558 38.0276596,8.3308465 C38.0276596,8.86607437 38.2504717,9.35634154 38.606378,9.71284264 C38.9593089,10.0663633 39.4449959,10.2894977 39.9815415,10.2894977 C40.5245937,10.2894977 41.0218443,10.0622763 41.3843001,9.70385131 C41.7430574,9.34908359 41.9723404,8.8629104 41.9723404,8.3308465 C41.9723404,7.78024187 41.7505674,7.2795919 41.3889306,6.91745791 C41.0301854,6.55821951 40.5338263,6.33607306 39.9815415,6.33607306 Z" id="Fill-8-Copy" stroke="#28313A" stroke-width="1.8" fill="#FFFFFE"></path>
            </g>
        </g>
    </g>
</svg>