<?xml version="1.0" encoding="UTF-8"?>
<svg width="44px" height="42px" viewBox="0 0 44 42" version="1.1" xmlns="http://www.w3.org/2000/svg" xmlns:xlink="http://www.w3.org/1999/xlink">
    <title>8base-appbuilder@1x</title>
    <defs>
        <linearGradient x1="50%" y1="1.23259516e-30%" x2="50%" y2="100%" id="linearGradient-1">
            <stop stop-color="#E83B34" offset="0%"></stop>
            <stop stop-color="#5B92FF" offset="100%"></stop>
        </linearGradient>
    </defs>
    <g id="Page-1" stroke="none" stroke-width="1" fill="none" fill-rule="evenodd">
        <g id="Documentation" transform="translate(-840.000000, -638.000000)">
            <g id="8base-appbuilder" transform="translate(840.000000, 638.000000)">
                <g id="Group" fill="url(#linearGradient-1)" fill-rule="nonzero">
                    <path d="M30.6752273,23.6262547 L44,37.1984986 L39.2860474,42 L25.9612746,28.4277561 L30.6752273,23.6262547 Z M12.5776514,1.98619595 C15.1776252,-0.662065317 19.399805,-0.662065317 21.9997789,1.98619595 L21.9997789,1.98619595 L17.2887151,6.78475483 L20.422017,9.97624918 L18.8442551,11.5833137 L22.7997709,15.6122924 L26.9108406,11.4248707 C26.6219547,10.6100211 26.4441787,9.72726735 26.4441787,8.79924417 C26.4441787,4.43074482 29.9330325,0.877095078 34.2218783,0.877095078 C35.5107542,0.877095078 36.7107421,1.23925047 37.7773981,1.80511826 L37.7773981,1.80511826 L31.7774584,7.91649042 L35.0885362,11.2890625 L41.0884759,5.1776903 C41.6440259,6.26415646 41.9995779,7.48643089 41.9995779,8.79924417 C41.9995779,13.1677435 38.5107241,16.7213933 34.2218783,16.7213933 C33.3107763,16.7213933 32.4441184,16.5403156 31.6441264,16.2460643 L31.6441264,16.2460643 L6.35549168,41.9817315 L1.64442792,37.1831726 L18.1109291,20.4108513 L14.1554133,16.3818726 L12.5776514,17.9889371 L9.44434952,14.7974428 L9.44434952,21.2030662 L7.8665876,22.8101307 L0,14.7974428 L1.57776192,13.1903782 L7.8443656,13.1903782 L4.71106376,9.99888389 Z" id="Combined-Shape"></path>
                </g>
                <path d="M22,6.11 C24.3458407,6.11 26.4234967,7.02075286 27.9166421,8.51083905 C29.4104691,10.0016055 30.3231843,12.0760204 30.3231843,14.4179551 C30.3231843,16.4549894 29.6084039,17.9387943 28.3976902,19.3237803 C29.3808806,20.0099678 30.1615257,20.8518679 30.7347072,21.8191063 C31.4931113,23.098906 31.89,24.6026511 31.89,26.2728577 C31.89,28.9321949 30.7632163,31.3190169 28.9772151,33.0508709 C27.162643,34.8104298 24.6679288,35.89 22,35.89 C19.3322341,35.89 16.837467,34.8103973 15.0228298,33.0507754 C13.2368349,31.3189274 12.11,28.9321423 12.11,26.2728577 C12.11,24.6027341 12.5069483,23.0990516 13.2653297,21.8192901 C13.8392354,20.8508296 14.6210955,20.0080222 15.6055192,19.3210763 C14.4029732,17.927798 13.7131903,16.4221242 13.7131903,14.4179551 C13.7131903,12.0737405 14.618509,9.99810604 16.1048804,8.50748555 C17.5885462,7.01957836 19.6552118,6.11 22,6.11 Z M22.1912931,22.8489041 C21.2733661,22.8489041 20.4428436,23.2209803 19.8418189,23.8229479 C19.24029,24.4254205 18.8687234,25.2580096 18.8687234,26.1780822 C18.8687234,27.0982685 19.2402356,27.9308368 19.8417226,28.5332674 C20.4427585,29.1352462 21.2733248,29.5072603 22.1912931,29.5072603 C23.1094302,29.5072603 23.9400976,29.1352637 24.5411933,28.5332813 C25.1427338,27.9308532 25.5142553,27.0982775 25.5142553,26.1780822 C25.5142553,25.2580006 25.1426794,24.4254042 24.5410969,23.822934 C23.9400125,23.2209628 23.1093888,22.8489041 22.1912931,22.8489041 Z M21.9815415,12.4927397 C21.4365596,12.4927397 20.9532988,12.7175129 20.6033968,13.0724284 C20.2395509,13.4414877 20.0176596,13.9501274 20.0176596,14.4975132 C20.0176596,15.0354676 20.2415753,15.5282508 20.5993011,15.8865745 C20.9540482,16.2419144 21.4422437,16.4661644 21.9815415,16.4661644 C22.5273033,16.4661644 23.0270589,16.2378501 23.3913315,15.8776285 C23.7519468,15.5210235 23.9823404,15.0323115 23.9823404,14.4975132 C23.9823404,13.9441538 23.7594513,13.4410028 23.3960065,13.0770584 C23.0354577,12.7160138 22.536606,12.4927397 21.9815415,12.4927397 Z" id="Fill-8" stroke="#28313A" stroke-width="1.78" fill="#FFFFFE"></path>
            </g>
        </g>
    </g>
</svg>