<svg width="20" height="20" viewBox="0 0 20 20" fill="none" xmlns="http://www.w3.org/2000/svg">
<path d="M7.2472 1.68657L7.74217 1.75753L7.74295 1.75166L7.2472 1.68657ZM12.2857 1.68713L11.7897 1.75094L11.7907 1.75809L12.2857 1.68713ZM12.5831 3.76166L12.0882 3.83262C12.1125 4.00222 12.2219 4.14756 12.3782 4.21777L12.5831 3.76166ZM13.7552 4.4421L13.4623 4.84731C13.6014 4.94785 13.7824 4.97004 13.9416 4.90607L13.7552 4.4421ZM15.7072 3.65802L15.8936 4.12199L15.8936 4.12199L15.7072 3.65802ZM15.7188 3.65338L16.1887 3.48251C16.1424 3.35518 16.0464 3.2521 15.9227 3.19685C15.799 3.1416 15.6581 3.13891 15.5324 3.18941L15.7188 3.65338ZM15.7189 3.65358L15.249 3.82445C15.2943 3.94907 15.3873 4.05059 15.5074 4.10667C15.6276 4.16275 15.7651 4.16879 15.8897 4.12347L15.7189 3.65358ZM16.7002 4.01151L16.2627 4.25384L16.2673 4.26173L16.7002 4.01151ZM18.4232 6.99233L18.8561 6.74212L18.8561 6.74211L18.4232 6.99233ZM18.4278 7.00038L18.6662 7.43988C18.7849 7.37553 18.8724 7.26596 18.9091 7.13607C18.9457 7.00618 18.9283 6.867 18.8607 6.75016L18.4278 7.00038ZM18.4277 7.00043L18.1893 6.56093C18.0726 6.62425 17.9858 6.73142 17.9482 6.85879C17.9106 6.98616 17.9252 7.12326 17.9888 7.23986L18.4277 7.00043ZM18.2281 8.02574L18.5374 8.41861L18.5389 8.4174L18.2281 8.02574ZM18.226 8.02746L18.5339 8.4214L18.5352 8.42032L18.226 8.02746ZM16.5715 9.32059L16.2636 8.92665C16.1277 9.03288 16.0562 9.20166 16.0743 9.3732L16.5715 9.32059ZM16.5715 10.6795L16.0743 10.6269C16.0562 10.7984 16.1277 10.9671 16.2635 11.0733L16.5715 10.6795ZM18.226 11.9734L18.5341 11.5795L18.534 11.5795L18.226 11.9734ZM18.2273 11.9743L18.537 11.5818L18.5354 11.5805L18.2273 11.9743ZM18.4277 13.0003L17.9888 12.7609L17.9888 12.7609L18.4277 13.0003ZM18.4233 13.0085L18.1734 13.4416C18.2901 13.5089 18.429 13.5263 18.5586 13.4898C18.6883 13.4534 18.7977 13.3661 18.8622 13.2479L18.4233 13.0085ZM18.4232 13.0084L18.673 12.5753C18.434 12.4374 18.1284 12.5193 17.9903 12.7582L18.4232 13.0084ZM16.7002 15.9892L16.2672 15.739L16.2628 15.747L16.7002 15.9892ZM15.7112 16.3443L15.8923 15.8782L15.8923 15.8782L15.7112 16.3443ZM15.7072 16.3427L15.2416 16.1605C15.1932 16.2842 15.196 16.4221 15.2494 16.5437C15.3028 16.6653 15.4023 16.7607 15.5261 16.8088L15.7072 16.3427ZM15.7072 16.3427L16.1729 16.5249C16.2729 16.2694 16.1482 15.981 15.8936 15.8788L15.7072 16.3427ZM13.753 15.5577L13.9393 15.0938C13.7813 15.0303 13.6018 15.0516 13.4631 15.1503L13.753 15.5577ZM12.5832 16.2385L12.3768 15.7831C12.2213 15.8536 12.1125 15.9985 12.0882 16.1675L12.5832 16.2385ZM12.2857 18.3129L11.7907 18.2419L11.7898 18.2491L12.2857 18.3129ZM7.2472 18.3135L7.74298 18.2483L7.74214 18.2425L7.2472 18.3135ZM6.94965 16.2388L7.44459 16.1678C7.42029 15.9984 7.31104 15.8532 7.15501 15.7829L6.94965 16.2388ZM5.7783 15.5586L6.07114 15.1534C5.93208 15.0529 5.7512 15.0307 5.59199 15.0946L5.7783 15.5586ZM3.8255 16.3427L3.63919 15.8788L3.63918 15.8788L3.8255 16.3427ZM3.81399 16.3474L3.34413 16.5183C3.39045 16.6456 3.48643 16.7487 3.61012 16.8039C3.73381 16.8591 3.87461 16.8618 4.00031 16.8114L3.81399 16.3474ZM3.81392 16.3472L4.28379 16.1762C4.18938 15.9167 3.90253 15.7829 3.64305 15.8773L3.81392 16.3472ZM2.83339 15.9893L3.27083 15.7469L3.26628 15.7391L2.83339 15.9893ZM1.11036 13.0084L0.677467 13.2586L0.677472 13.2586L1.11036 13.0084ZM1.10571 13.0004L0.865538 12.5618C0.747477 12.6265 0.660472 12.736 0.624201 12.8656C0.587931 12.9953 0.605458 13.1341 0.672819 13.2506L1.10571 13.0004ZM1.10581 13.0003L1.34598 13.4389C1.58789 13.3064 1.67683 13.003 1.54476 12.7609L1.10581 13.0003ZM1.3069 11.9738L0.99857 11.5802L0.998064 11.5806L1.3069 11.9738ZM1.30745 11.9734L0.999357 11.5796L0.999124 11.5798L1.30745 11.9734ZM2.96149 10.6794L3.26958 11.0732C3.40513 10.9671 3.47661 10.7988 3.4588 10.6276L2.96149 10.6794ZM2.96149 9.32072L3.45881 9.37242C3.47661 9.2012 3.40508 9.03287 3.26948 8.92684L2.96149 9.32072ZM1.30753 8.02741L0.998624 8.42058L0.999533 8.42129L1.30753 8.02741ZM1.30607 8.02626L0.996126 8.41861L0.997165 8.41943L1.30607 8.02626ZM1.11124 6.9908L1.54207 7.24458L1.54412 7.24103L1.11124 6.9908ZM2.83338 4.0115L3.26634 4.26176L3.27077 4.25376L2.83338 4.0115ZM3.82322 3.6571L4.0065 3.1919L4.00648 3.19189L3.82322 3.6571ZM3.8255 3.658L4.29179 3.8385C4.39105 3.58206 4.26462 3.2936 4.00879 3.1928L3.8255 3.658ZM3.8255 3.65801L3.35922 3.47751C3.26041 3.73276 3.3852 4.02001 3.63919 4.122L3.8255 3.65801ZM5.78034 4.44294L5.59403 4.90693C5.75218 4.97044 5.93178 4.94901 6.07055 4.85009L5.78034 4.44294ZM6.94962 3.76211L7.15581 4.21762C7.31143 4.14718 7.42032 4.00216 7.44456 3.83307L6.94962 3.76211ZM15.8027 10.7987L15.3065 10.7367C15.2901 10.8683 15.3266 11.001 15.408 11.1057C15.4894 11.2104 15.6091 11.2784 15.7406 11.2949L15.8027 10.7987ZM16.1748 10.8453L16.5686 11.1533C16.6795 11.0114 16.7056 10.8209 16.637 10.6545C16.5683 10.4881 16.4154 10.3714 16.2368 10.3491L16.1748 10.8453ZM15.8027 9.20126L15.3065 9.26328L15.3065 9.26328L15.8027 9.20126ZM15.9438 8.85929L15.6359 8.46535L15.6359 8.46535L15.9438 8.85929ZM17.7619 7.43826L18.0698 7.83222L18.0739 7.82894L17.7619 7.43826ZM17.7624 7.4379L18.0795 7.82444L18.0806 7.82357L17.7624 7.4379ZM17.7707 7.36216L18.2164 7.13567C18.2124 7.12764 18.2081 7.11973 18.2036 7.11194L17.7707 7.36216ZM16.0489 4.38342L15.616 4.63362L15.616 4.63364L16.0489 4.38342ZM16.0442 4.37537L15.8032 3.93727C15.6854 4.00206 15.5987 4.11157 15.5626 4.24107C15.5265 4.37058 15.544 4.50918 15.6113 4.62558L16.0442 4.37537ZM16.0443 4.37532L16.2853 4.81343C16.5266 4.68069 16.6152 4.37776 16.4833 4.13594L16.0443 4.37532ZM16.0217 4.35882L16.1829 3.88552L16.1829 3.88551L16.0217 4.35882ZM15.9782 4.35744L15.8371 3.87776C15.8218 3.88227 15.8066 3.88751 15.7918 3.89347L15.9782 4.35744ZM13.8395 5.21648L14.0259 5.68045L13.8395 5.21648ZM13.4711 5.16573L13.1663 5.56205L13.1663 5.56205L13.4711 5.16573ZM12.0999 4.37036L11.9106 4.83318L11.9106 4.83318L12.0999 4.37036ZM11.8706 4.07647L11.3756 4.14743L11.8706 4.07647ZM11.5428 1.79047L12.0378 1.71951L12.0378 1.7195L11.5428 1.79047ZM11.5418 1.78311L11.4809 1.28682C11.3475 1.30317 11.2264 1.37252 11.1447 1.47924C11.063 1.58596 11.0277 1.72106 11.0468 1.85408L11.5418 1.78311ZM11.5418 1.7831L11.6027 2.27939C11.7343 2.26325 11.8542 2.19544 11.9359 2.0909C12.0175 1.98636 12.0543 1.85364 12.0381 1.72198L11.5418 1.7831ZM11.53 1.76322L11.8554 1.3836L11.8554 1.38359L11.53 1.76322ZM7.99079 1.78443L7.49476 1.72153L7.49476 1.72153L7.99079 1.78443ZM7.99002 1.79048L7.91885 2.28539C8.05154 2.30447 8.18634 2.26947 8.29298 2.18824C8.39963 2.10701 8.46919 1.98636 8.48605 1.85337L7.99002 1.79048ZM7.98997 1.79047L8.06115 1.29556C7.92985 1.27668 7.79644 1.31074 7.69026 1.39025C7.58409 1.46977 7.51386 1.58821 7.49503 1.71951L7.98997 1.79047ZM7.66222 4.07647L7.16728 4.00551L7.16728 4.00551L7.66222 4.07647ZM7.4331 4.37029L7.24366 3.90757L7.24366 3.90757L7.4331 4.37029ZM6.05893 5.16838L5.75872 4.76854L5.75872 4.76854L6.05893 5.16838ZM5.69404 5.21649L5.50773 5.68049L5.50773 5.68049L5.69404 5.21649ZM3.54769 4.35466L3.73403 3.8906L3.72591 3.8875L3.54769 4.35466ZM3.51354 4.35364L3.34543 3.88274L3.34542 3.88275L3.51354 4.35364ZM3.48923 4.37532L3.05028 4.13589L3.05028 4.1359L3.48923 4.37532ZM3.48478 4.38347L3.23504 4.81664C3.3517 4.8839 3.49056 4.90126 3.62018 4.86479C3.74981 4.82833 3.85925 4.74112 3.92373 4.6229L3.48478 4.38347ZM3.48468 4.38342L3.73442 3.95025C3.49538 3.81243 3.18988 3.89431 3.0518 4.13319L3.48468 4.38342ZM1.75968 7.36767L1.3268 7.11744L1.32679 7.11745L1.75968 7.36767ZM1.75761 7.37126L1.49903 7.7992C1.61397 7.86865 1.75202 7.88895 1.88208 7.85552C2.01215 7.82208 2.12329 7.73774 2.1905 7.62147L1.75761 7.37126ZM1.75759 7.37125L2.01616 6.9433C1.90205 6.87435 1.76511 6.85383 1.6358 6.88631C1.50648 6.91878 1.39549 7.00156 1.32749 7.11626L1.75759 7.37125ZM1.75085 7.4057L2.24134 7.30864L2.24134 7.30863L1.75085 7.4057ZM1.7706 7.43744L2.08407 7.04791L2.08363 7.04755L1.7706 7.43744ZM1.77097 7.43774L1.46111 7.83016L1.46298 7.83162L1.77097 7.43774ZM3.58901 8.85934L3.897 8.46546L3.897 8.46546L3.58901 8.85934ZM3.73012 9.20126L4.22626 9.26328L4.22626 9.26328L3.73012 9.20126ZM3.73012 10.7987L3.23398 10.8608L3.23398 10.8608L3.73012 10.7987ZM3.58909 11.1406L3.281 10.7468L3.281 10.7468L3.58909 11.1406ZM1.77014 12.5637L2.07736 12.9582L2.07824 12.9575L1.77014 12.5637ZM1.77006 12.5637L1.46326 12.1689L1.45942 12.1719L1.77006 12.5637ZM1.76285 12.6386L1.31728 12.8654C1.3213 12.8733 1.32553 12.8811 1.32996 12.8888L1.76285 12.6386ZM3.48468 15.6173L3.91757 15.3671L3.91757 15.3671L3.48468 15.6173ZM3.48933 15.6254L3.72977 16.0638C3.84775 15.9991 3.93466 15.8895 3.97088 15.76C4.00709 15.6304 3.98955 15.4917 3.92222 15.3752L3.48933 15.6254ZM3.48923 15.6254L3.24879 15.187C3.00707 15.3196 2.91827 15.6228 3.05028 15.8649L3.48923 15.6254ZM3.51166 15.642L3.67315 15.1688L3.67314 15.1688L3.51166 15.642ZM3.55461 15.6433L3.69603 16.1229C3.71123 16.1184 3.72621 16.1132 3.74092 16.1073L3.55461 15.6433ZM5.69404 14.7843L5.88035 15.2482L5.88035 15.2482L5.69404 14.7843ZM6.06241 14.835L5.75756 15.2313L5.75756 15.2313L6.06241 14.835ZM7.43353 15.6306L7.24352 16.0931L7.24352 16.0931L7.43353 15.6306ZM7.66222 15.9243L8.15716 15.8533L8.15716 15.8533L7.66222 15.9243ZM7.98997 18.2095L8.48491 18.1385L8.48491 18.1385L7.98997 18.2095ZM7.99084 18.2156L8.04815 18.7123C8.18226 18.6968 8.30441 18.6278 8.38683 18.5208C8.46925 18.4139 8.50494 18.2782 8.48578 18.1446L7.99084 18.2156ZM7.99079 18.2156L7.93348 17.7189C7.80077 17.7342 7.67972 17.802 7.5973 17.9071C7.51488 18.0122 7.47796 18.146 7.49476 18.2785L7.99079 18.2156ZM11.53 18.2368L11.2046 17.8572L11.2046 17.8572L11.53 18.2368ZM11.5418 18.2169L11.0456 18.1558L11.0456 18.1558L11.5418 18.2169ZM11.5427 18.2095L11.6071 17.7137C11.4751 17.6965 11.3416 17.7328 11.2364 17.8144C11.1311 17.896 11.0628 18.0162 11.0465 18.1484L11.5427 18.2095ZM11.5428 18.2095L11.4784 18.7053C11.7497 18.7406 11.9989 18.5513 12.0378 18.2805L11.5428 18.2095ZM11.8706 15.9243L12.3655 15.9952L12.3655 15.9952L11.8706 15.9243ZM12.0994 15.6306L11.9097 15.168L11.9097 15.168L12.0994 15.6306ZM13.4749 14.8321L13.1751 14.432L13.1751 14.432L13.4749 14.8321ZM13.8395 14.7843L14.0259 14.3203L14.0259 14.3203L13.8395 14.7843ZM15.984 15.6457L15.7976 16.1096C15.8021 16.1114 15.8066 16.1131 15.8111 16.1148L15.984 15.6457ZM16.0203 15.6467L15.8528 15.1756L15.8528 15.1756L16.0203 15.6467ZM16.0443 15.6254L15.6054 15.386L15.6054 15.386L16.0443 15.6254ZM16.0488 15.6173L16.2968 15.1832C16.1802 15.1165 16.0417 15.0996 15.9124 15.1362C15.7832 15.1728 15.6741 15.2599 15.6098 15.3779L16.0488 15.6173ZM16.0489 15.6173L15.8008 16.0515C16.0397 16.188 16.344 16.1058 16.4817 15.8676L16.0489 15.6173ZM17.7707 12.6386L18.2036 12.8888C18.2081 12.881 18.2124 12.8731 18.2165 12.865L17.7707 12.6386ZM17.763 12.5634L18.078 12.1751L18.078 12.175L17.763 12.5634ZM17.7627 12.5632L18.0724 12.1706L18.0708 12.1693L17.7627 12.5632ZM15.9438 11.1406L15.5499 10.8326C15.4682 10.9371 15.4314 11.0697 15.4475 11.2014C15.4636 11.333 15.5313 11.4528 15.6357 11.5345L15.9438 11.1406ZM7.26677 10C7.26677 8.6225 8.38927 7.5 9.76677 7.5V6.5C7.83698 6.5 6.26677 8.07021 6.26677 10H7.26677ZM9.76677 12.5C8.38927 12.5 7.26677 11.3775 7.26677 10H6.26677C6.26677 11.9298 7.83698 13.5 9.76677 13.5V12.5ZM12.2668 10C12.2668 11.3775 11.1443 12.5 9.76677 12.5V13.5C11.6966 13.5 13.2668 11.9298 13.2668 10H12.2668ZM9.76677 7.5C11.1443 7.5 12.2668 8.6225 12.2668 10H13.2668C13.2668 8.07021 11.6966 6.5 9.76677 6.5V7.5ZM5.51677 10C5.51677 12.344 7.42277 14.25 9.76677 14.25V13.25C7.97505 13.25 6.51677 11.7917 6.51677 10H5.51677ZM9.76677 5.75C7.42277 5.75 5.51677 7.656 5.51677 10H6.51677C6.51677 8.20829 7.97505 6.75 9.76677 6.75V5.75ZM14.0168 10C14.0168 7.656 12.1108 5.75 9.76677 5.75V6.75C11.5585 6.75 13.0168 8.20829 13.0168 10H14.0168ZM9.76677 14.25C12.1108 14.25 14.0168 12.344 14.0168 10H13.0168C13.0168 11.7917 11.5585 13.25 9.76677 13.25V14.25ZM8.04177 0.5C7.40979 0.5 6.83858 0.957946 6.75146 1.62148L7.74295 1.75166C7.76126 1.61217 7.88471 1.5 8.04177 1.5V0.5ZM11.4918 0.5H8.04177V1.5H11.4918V0.5ZM12.7816 1.62332C12.6957 0.956155 12.1208 0.5 11.4918 0.5V1.5C11.6484 1.5 11.7719 1.61237 11.7898 1.75093L12.7816 1.62332ZM13.078 3.6907L12.7806 1.61616L11.7907 1.75809L12.0882 3.83262L13.078 3.6907ZM14.0482 4.03689C13.6561 3.75346 13.2373 3.5074 12.788 3.30556L12.3782 4.21777C12.7618 4.39006 13.1219 4.6012 13.4623 4.84731L14.0482 4.03689ZM15.5209 3.19405L13.5689 3.97813L13.9416 4.90607L15.8936 4.12199L15.5209 3.19405ZM15.5324 3.18941L15.5209 3.19405L15.8936 4.12199L15.9052 4.11735L15.5324 3.18941ZM16.1888 3.48271L16.1887 3.48251L15.2489 3.82426L15.249 3.82445L16.1888 3.48271ZM17.1375 3.76921C16.7996 3.15928 16.0902 2.9865 15.548 3.18368L15.8897 4.12347C16.0308 4.0722 16.1934 4.12857 16.2628 4.2538L17.1375 3.76921ZM18.8561 6.74211L17.133 3.76128L16.2673 4.26173L17.9903 7.24256L18.8561 6.74211ZM18.8607 6.75016L18.8561 6.74212L17.9903 7.24254L17.9949 7.25059L18.8607 6.75016ZM18.6661 7.43993L18.6662 7.43988L18.1894 6.56087L18.1893 6.56093L18.6661 7.43993ZM18.5389 8.4174C19.0548 8.00805 19.1622 7.30283 18.8667 6.761L17.9888 7.23986C18.0654 7.38036 18.0296 7.54499 17.9173 7.63409L18.5389 8.4174ZM18.5352 8.42032L18.5374 8.4186L17.9188 7.63288L17.9167 7.6346L18.5352 8.42032ZM16.8794 9.71453L18.5339 8.4214L17.918 7.63351L16.2636 8.92665L16.8794 9.71453ZM17.1105 10C17.1105 9.74012 17.093 9.49697 17.0688 9.26799L16.0743 9.3732C16.096 9.57873 16.1105 9.78519 16.1105 10H17.1105ZM17.0687 10.7321C17.093 10.5031 17.1105 10.2599 17.1105 10H16.1105C16.1105 10.2148 16.096 10.4213 16.0743 10.6269L17.0687 10.7321ZM18.534 11.5795L16.8795 10.2856L16.2635 11.0733L17.918 12.3672L18.534 11.5795ZM18.5354 11.5805L18.5341 11.5795L17.918 12.3672L17.9192 12.3682L18.5354 11.5805ZM18.8667 13.2397C19.1614 12.6994 19.0563 11.9916 18.537 11.5818L17.9176 12.3669C18.0293 12.455 18.0656 12.6201 17.9888 12.7609L18.8667 13.2397ZM18.8622 13.2479L18.8667 13.2397L17.9888 12.7609L17.9843 12.7691L18.8622 13.2479ZM18.1733 13.4415L18.1734 13.4416L18.6731 12.5754L18.673 12.5753L18.1733 13.4415ZM17.133 16.2395L18.8561 13.2586L17.9903 12.7582L16.2673 15.739L17.133 16.2395ZM15.53 16.8103C16.1227 17.0407 16.8147 16.8145 17.1376 16.2315L16.2628 15.747C16.1904 15.8777 16.0345 15.9335 15.8923 15.8782L15.53 16.8103ZM15.5261 16.8088L15.5301 16.8103L15.8923 15.8782L15.8883 15.8767L15.5261 16.8088ZM15.2416 16.1605L15.2416 16.1605L16.1729 16.5249L16.1729 16.5249L15.2416 16.1605ZM13.5666 16.0217L15.5209 16.8067L15.8936 15.8788L13.9393 15.0938L13.5666 16.0217ZM12.7896 16.6939C13.2415 16.4891 13.658 16.239 14.0428 15.9651L13.4631 15.1503C13.1212 15.3936 12.7604 15.6092 12.3768 15.7831L12.7896 16.6939ZM12.7806 18.3838L13.0781 16.3095L12.0882 16.1675L11.7907 18.2419L12.7806 18.3838ZM11.4918 19.5C12.1208 19.5 12.6957 19.0438 12.7816 18.3767L11.7898 18.2491C11.7719 18.3876 11.6484 18.5 11.4918 18.5V19.5ZM8.04177 19.5H11.4918V18.5H8.04177V19.5ZM6.75146 18.3786C6.8386 19.0421 7.4098 19.5 8.04177 19.5V18.5C7.88472 18.5 7.76127 18.3878 7.74295 18.2483L6.75146 18.3786ZM6.45472 16.3097L6.75227 18.3844L7.74214 18.2425L7.44459 16.1678L6.45472 16.3097ZM5.48545 15.9639C5.87781 16.2474 6.29625 16.4928 6.74429 16.6946L7.15501 15.7829C6.77166 15.6102 6.41158 15.3994 6.07114 15.1534L5.48545 15.9639ZM4.01181 16.8067L5.9646 16.0226L5.59199 15.0946L3.63919 15.8788L4.01181 16.8067ZM4.00031 16.8114L4.01182 16.8067L3.63918 15.8788L3.62767 15.8834L4.00031 16.8114ZM3.34406 16.5181L3.34413 16.5183L4.28386 16.1764L4.28379 16.1762L3.34406 16.5181ZM2.39603 16.2316C2.73348 16.8407 3.44161 17.0146 3.98479 16.8171L3.64305 15.8773C3.50222 15.9285 3.34021 15.8723 3.27076 15.747L2.39603 16.2316ZM0.677472 13.2586L2.40051 16.2395L3.26628 15.7391L1.54324 12.7582L0.677472 13.2586ZM0.672819 13.2506L0.677467 13.2586L1.54324 12.7582L1.5386 12.7502L0.672819 13.2506ZM0.865639 12.5618L0.865538 12.5618L1.34588 13.4389L1.34598 13.4389L0.865639 12.5618ZM0.998064 11.5806C0.474208 11.992 0.37342 12.7018 0.666861 13.2397L1.54476 12.7609C1.46767 12.6196 1.50398 12.4548 1.61573 12.3671L0.998064 11.5806ZM0.999124 11.5798L0.99857 11.5802L1.61522 12.3675L1.61578 12.367L0.999124 11.5798ZM2.65339 10.2856L0.999357 11.5796L1.61554 12.3672L3.26958 11.0732L2.65339 10.2856ZM2.42302 10C2.42302 10.2532 2.44006 10.4993 2.46417 10.7311L3.4588 10.6276C3.43713 10.4193 3.42302 10.2092 3.42302 10H2.42302ZM2.46417 9.26902C2.44006 9.50096 2.42302 9.74737 2.42302 10H3.42302C3.42302 9.7914 3.43713 9.58097 3.45881 9.37242L2.46417 9.26902ZM0.999533 8.42129L2.6535 9.7146L3.26948 8.92684L1.61552 7.63353L0.999533 8.42129ZM0.997165 8.41943L0.998625 8.42058L1.61643 7.63424L1.61497 7.63309L0.997165 8.41943ZM0.680427 6.73703C0.337066 7.31993 0.504369 8.03015 0.996127 8.41861L1.616 7.63391C1.49809 7.54077 1.46405 7.377 1.54205 7.24458L0.680427 6.73703ZM2.4005 3.76128L0.678356 6.74058L1.54412 7.24103L3.26627 4.26172L2.4005 3.76128ZM4.00648 3.19189C3.40849 2.95632 2.7169 3.18988 2.396 3.76923L3.27077 4.25376C3.34362 4.12225 3.49965 4.06703 3.63995 4.1223L4.00648 3.19189ZM4.00879 3.1928L4.0065 3.1919L3.63993 4.12229L3.64222 4.12319L4.00879 3.1928ZM4.29179 3.8385L4.29179 3.8385L3.35922 3.4775L3.35922 3.47751L4.29179 3.8385ZM5.96664 3.97895L4.01181 3.19401L3.63919 4.122L5.59403 4.90693L5.96664 3.97895ZM6.74344 3.3066C6.2917 3.51108 5.87512 3.76136 5.49012 4.03579L6.07055 4.85009C6.41224 4.60654 6.77279 4.39099 7.15581 4.21762L6.74344 3.3066ZM6.75226 1.61561L6.45469 3.69115L7.44456 3.83307L7.74214 1.75753L6.75226 1.61561ZM15.7406 11.2949L16.1128 11.3414L16.2368 10.3491L15.8647 10.3026L15.7406 11.2949ZM15.3605 10C15.3605 10.2413 15.339 10.4768 15.3065 10.7367L16.2988 10.8608C16.3336 10.5825 16.3605 10.3007 16.3605 10H15.3605ZM15.3065 9.26328C15.339 9.52317 15.3605 9.7587 15.3605 10H16.3605C16.3605 9.69932 16.3336 9.41753 16.2988 9.13924L15.3065 9.26328ZM15.6359 8.46535C15.3934 8.65489 15.2684 8.95788 15.3065 9.26328L16.2988 9.13925C16.3043 9.18287 16.2864 9.22616 16.2517 9.25324L15.6359 8.46535ZM17.454 7.04431L15.6359 8.46535L16.2517 9.25324L18.0698 7.8322L17.454 7.04431ZM17.4452 7.05136C17.4474 7.04953 17.4492 7.04813 17.4499 7.04757L18.0739 7.82894C18.0749 7.82814 18.077 7.82651 18.0795 7.82443L17.4452 7.05136ZM17.3249 7.58866C17.2341 7.40998 17.2819 7.18612 17.4441 7.05223L18.0806 7.82357C18.268 7.66895 18.3445 7.38768 18.2164 7.13567L17.3249 7.58866ZM15.616 4.63364L17.3378 7.61239L18.2036 7.11194L16.4817 4.13319L15.616 4.63364ZM15.6113 4.62558L15.616 4.63362L16.4818 4.13321L16.4771 4.12517L15.6113 4.62558ZM15.8033 3.93721L15.8032 3.93727L16.2852 4.81348L16.2853 4.81343L15.8033 3.93721ZM15.8605 4.83212C15.8197 4.81821 15.7688 4.79386 15.7183 4.75201C15.6655 4.70819 15.6293 4.65865 15.6053 4.6147L16.4833 4.13594C16.4181 4.01641 16.3109 3.92911 16.1829 3.88552L15.8605 4.83212ZM16.1193 4.83712C16.0721 4.85098 16.0281 4.85549 15.9895 4.85478C15.95 4.85405 15.9062 4.84768 15.8605 4.83213L16.1829 3.88551C16.0683 3.84647 15.9463 3.84563 15.8371 3.87776L16.1193 4.83712ZM14.0259 5.68045L16.1645 4.82141L15.7918 3.89347L13.6532 4.75251L14.0259 5.68045ZM13.1663 5.56205C13.4117 5.75083 13.7386 5.79585 14.0259 5.68045L13.6532 4.75251C13.6942 4.73602 13.7409 4.74245 13.776 4.76942L13.1663 5.56205ZM11.9106 4.83318C12.359 5.01649 12.7746 5.26075 13.1663 5.56205L13.776 4.76942C13.3194 4.41818 12.8267 4.12736 12.2891 3.90755L11.9106 4.83318ZM11.3756 4.14743C11.4197 4.45474 11.6233 4.71569 11.9106 4.83318L12.2891 3.90755C12.3301 3.92433 12.3592 3.96161 12.3655 4.00551L11.3756 4.14743ZM11.0479 1.86143L11.3756 4.14743L12.3655 4.00551L12.0378 1.71951L11.0479 1.86143ZM11.0468 1.85408L11.0479 1.86144L12.0378 1.7195L12.0367 1.71214L11.0468 1.85408ZM11.481 1.28681L11.4809 1.28682L11.6026 2.27939L11.6027 2.27939L11.481 1.28681ZM11.2046 2.14284C11.1674 2.11097 11.1294 2.06771 11.099 2.0116C11.0683 1.95478 11.0521 1.89703 11.0456 1.84422L12.0381 1.72198C12.0218 1.59017 11.9566 1.47037 11.8554 1.3836L11.2046 2.14284ZM11.4918 2.25C11.3877 2.25 11.2856 2.21226 11.2046 2.14286L11.8554 1.38359C11.7572 1.2994 11.6291 1.25 11.4918 1.25V2.25ZM8.04177 2.25H11.4918V1.25H8.04177V2.25ZM8.48682 1.84733C8.47135 1.96934 8.41235 2.06722 8.33879 2.13383C8.25038 2.2139 8.14146 2.25 8.04177 2.25V1.25C7.74163 1.25 7.52626 1.47313 7.49476 1.72153L8.48682 1.84733ZM8.48605 1.85337L8.48682 1.84732L7.49476 1.72153L7.49399 1.72759L8.48605 1.85337ZM7.9188 2.28538L7.91885 2.28539L8.0612 1.29557L8.06115 1.29556L7.9188 2.28538ZM8.15716 4.14743L8.48491 1.86143L7.49503 1.71951L7.16728 4.00551L8.15716 4.14743ZM7.62255 4.83301C7.90971 4.71544 8.11312 4.45459 8.15716 4.14743L7.16728 4.00551C7.17358 3.96163 7.20264 3.92437 7.24366 3.90757L7.62255 4.83301ZM6.35914 5.56822C6.76221 5.26558 7.18056 5.01397 7.62255 4.83301L7.24366 3.90757C6.70594 4.12772 6.21371 4.42692 5.75872 4.76854L6.35914 5.56822ZM5.50773 5.68049C5.79164 5.79449 6.11448 5.75192 6.35914 5.56822L5.75872 4.76854C5.79367 4.7423 5.83979 4.73622 5.88035 4.7525L5.50773 5.68049ZM3.36138 4.81865L5.50773 5.68049L5.88035 4.7525L3.734 3.89067L3.36138 4.81865ZM3.68164 4.82453C3.58013 4.86077 3.46899 4.85978 3.36947 4.82182L3.72591 3.8875C3.60024 3.83956 3.46573 3.8398 3.34543 3.88274L3.68164 4.82453ZM3.92818 4.61474C3.9047 4.65778 3.87088 4.70248 3.82442 4.742C3.77787 4.7816 3.72811 4.80794 3.68165 4.82453L3.34542 3.88275C3.22225 3.92672 3.11647 4.01454 3.05028 4.13589L3.92818 4.61474ZM3.92373 4.6229L3.92818 4.61474L3.05028 4.1359L3.04583 4.14405L3.92373 4.6229ZM3.23494 4.81658L3.23504 4.81664L3.73452 3.95031L3.73442 3.95025L3.23494 4.81658ZM2.19257 7.61789L3.91757 4.63364L3.0518 4.13319L1.3268 7.11744L2.19257 7.61789ZM2.1905 7.62147L2.19257 7.61788L1.32679 7.11745L1.32472 7.12105L2.1905 7.62147ZM1.49901 7.79919L1.49903 7.7992L2.01618 6.94331L2.01616 6.9433L1.49901 7.79919ZM2.24134 7.30863C2.25043 7.35454 2.25403 7.41075 2.2436 7.47267C2.23323 7.53418 2.21162 7.58586 2.18768 7.62623L1.32749 7.11626C1.25584 7.23711 1.23487 7.37392 1.26037 7.50277L2.24134 7.30863ZM2.08363 7.04755C2.16495 7.11285 2.22089 7.20528 2.24134 7.30864L1.26037 7.50276C1.28529 7.62869 1.35407 7.74423 1.45757 7.82733L2.08363 7.04755ZM2.08083 7.04532C2.08123 7.04564 2.08247 7.04662 2.08407 7.04791L1.45712 7.82696C1.45898 7.82846 1.46047 7.82964 1.46112 7.83015L2.08083 7.04532ZM3.897 8.46546L2.07896 7.04386L1.46298 7.83162L3.28102 9.25322L3.897 8.46546ZM4.22626 9.26328C4.26443 8.95795 4.13941 8.65501 3.897 8.46546L3.28102 9.25322C3.24639 9.22614 3.22853 9.18286 3.23398 9.13925L4.22626 9.26328ZM4.17302 10C4.17302 9.76595 4.19412 9.5204 4.22626 9.26328L3.23398 9.13925C3.19915 9.41793 3.17302 9.70857 3.17302 10H4.17302ZM4.22626 10.7367C4.19411 10.4795 4.17302 10.2348 4.17302 10H3.17302C3.17302 10.2922 3.19915 10.5821 3.23398 10.8608L4.22626 10.7367ZM3.89718 11.5344C4.13947 11.3448 4.26442 11.042 4.22626 10.7367L3.23398 10.8608C3.22853 10.8171 3.24638 10.7739 3.281 10.7468L3.89718 11.5344ZM2.07824 12.9575L3.89718 11.5344L3.281 10.7468L1.46205 12.1699L2.07824 12.9575ZM2.07685 12.9585L2.07735 12.9582L1.46293 12.1692L1.46327 12.1689L2.07685 12.9585ZM2.20842 12.4117C2.24994 12.4933 2.26667 12.5961 2.24263 12.7012C2.22238 12.7899 2.17181 12.8833 2.08071 12.9555L1.45942 12.1719C1.26922 12.3227 1.1859 12.6074 1.31728 12.8654L2.20842 12.4117ZM3.91757 15.3671L2.19573 12.3883L1.32996 12.8888L3.0518 15.8676L3.91757 15.3671ZM3.92222 15.3752L3.91757 15.3671L3.05179 15.8675L3.05644 15.8756L3.92222 15.3752ZM3.72967 16.0638L3.72977 16.0638L3.24889 15.187L3.24879 15.187L3.72967 16.0638ZM3.67314 15.1688C3.714 15.1827 3.76501 15.2071 3.81558 15.2491C3.86841 15.293 3.90442 15.3424 3.92818 15.386L3.05028 15.8649C3.11549 15.9844 3.22252 16.0716 3.35018 16.1152L3.67314 15.1688ZM3.41318 15.1637C3.46028 15.1498 3.50444 15.1453 3.54345 15.146C3.5832 15.1467 3.62727 15.1531 3.67315 15.1688L3.35017 16.1152C3.46462 16.1543 3.58656 16.1552 3.69603 16.1229L3.41318 15.1637ZM5.50773 14.3203L3.3683 15.1793L3.74092 16.1073L5.88035 15.2482L5.50773 14.3203ZM6.36727 14.4387C6.12188 14.2499 5.79502 14.2049 5.50773 14.3203L5.88035 15.2482C5.8393 15.2647 5.79261 15.2583 5.75756 15.2313L6.36727 14.4387ZM7.62354 15.1681C7.17436 14.9836 6.75841 14.7396 6.36727 14.4387L5.75756 15.2313C6.21425 15.5826 6.70683 15.8726 7.24352 16.0931L7.62354 15.1681ZM8.15716 15.8533C8.11316 15.5465 7.91019 15.2859 7.62353 15.1681L7.24352 16.0931C7.20257 16.0763 7.17357 16.0391 7.16729 15.9952L8.15716 15.8533ZM8.48491 18.1385L8.15716 15.8533L7.16729 15.9952L7.49504 18.2805L8.48491 18.1385ZM8.48578 18.1446L8.48491 18.1385L7.49503 18.2805L7.4959 18.2865L8.48578 18.1446ZM8.0481 18.7123L8.04815 18.7123L7.93353 17.7189L7.93348 17.7189L8.0481 18.7123ZM8.04177 17.75C8.14145 17.75 8.25038 17.7861 8.33879 17.8662C8.41235 17.9328 8.47134 18.0307 8.48682 18.1527L7.49476 18.2785C7.52626 18.5269 7.74163 18.75 8.04177 18.75V17.75ZM11.4918 17.75H8.04177V18.75H11.4918V17.75ZM11.2046 17.8572C11.2856 17.7877 11.3877 17.75 11.4918 17.75V18.75C11.6291 18.75 11.7572 18.7006 11.8554 18.6164L11.2046 17.8572ZM11.0456 18.1558C11.0521 18.103 11.0683 18.0452 11.099 17.9884C11.1294 17.9323 11.1674 17.889 11.2046 17.8572L11.8554 18.6164C11.9566 18.5296 12.0218 18.4099 12.0381 18.278L11.0456 18.1558ZM11.0465 18.1484L11.0456 18.1558L12.0381 18.2781L12.039 18.2707L11.0465 18.1484ZM11.6072 17.7137L11.6071 17.7137L11.4784 18.7053L11.4784 18.7053L11.6072 17.7137ZM11.3756 15.8533L11.0479 18.1385L12.0378 18.2805L12.3655 15.9952L11.3756 15.8533ZM11.9097 15.168C11.6228 15.2857 11.4196 15.5464 11.3756 15.8533L12.3655 15.9952C12.3592 16.0391 12.3302 16.0763 12.2892 16.0931L11.9097 15.168ZM13.1751 14.432C12.7717 14.7342 12.3529 14.9861 11.9097 15.168L12.2892 16.0931C12.8276 15.8723 13.3198 15.5731 13.7747 15.2323L13.1751 14.432ZM14.0259 14.3203C13.7423 14.2064 13.4198 14.2487 13.1751 14.432L13.7747 15.2323C13.7398 15.2585 13.6937 15.2645 13.6532 15.2482L14.0259 14.3203ZM16.1704 15.1817L14.0259 14.3203L13.6532 15.2482L15.7976 16.1096L16.1704 15.1817ZM15.8528 15.1756C15.9524 15.1402 16.0604 15.1409 16.1569 15.1765L15.8111 16.1148C15.9361 16.1609 16.0691 16.16 16.1879 16.1178L15.8528 15.1756ZM15.6054 15.386C15.6286 15.3434 15.6625 15.2982 15.7097 15.2581C15.7571 15.2179 15.8072 15.1918 15.8528 15.1756L16.1878 16.1178C16.3113 16.0739 16.4171 15.9862 16.4833 15.8648L15.6054 15.386ZM15.6098 15.3779L15.6054 15.386L16.4833 15.8648L16.4877 15.8567L15.6098 15.3779ZM16.2969 15.1832L16.2968 15.1832L15.8007 16.0514L15.8008 16.0515L16.2969 15.1832ZM17.3378 12.3884L15.616 15.3671L16.4817 15.8676L18.2036 12.8888L17.3378 12.3884ZM17.448 12.9517C17.2824 12.8173 17.2336 12.5919 17.3249 12.4121L18.2165 12.865C18.3458 12.6105 18.266 12.3276 18.078 12.1751L17.448 12.9517ZM17.4531 12.9557C17.4514 12.9544 17.4497 12.953 17.448 12.9517L18.078 12.175C18.0761 12.1736 18.0743 12.1721 18.0724 12.1706L17.4531 12.9557ZM15.6357 11.5345L17.4547 12.957L18.0708 12.1693L16.2518 10.7468L15.6357 11.5345ZM15.7809 10.5372L15.5499 10.8326L16.3376 11.4487L16.5686 11.1533L15.7809 10.5372Z" fill="black"/>
</svg>
