<svg width="24" height="24" viewBox="0 0 24 24" fill="none" xmlns="http://www.w3.org/2000/svg">
<path d="M6.5 9.85931V4.79999C6.5 4.00439 7.15633 3.35999 7.96667 3.35999H21.1667C21.977 3.35999 22.6333 4.00439 22.6333 4.79999V16.32C22.6333 17.1156 21.977 17.76 21.1667 17.76V17.76H10.9404" stroke="black" stroke-width="0.9" stroke-linecap="round" stroke-linejoin="round"/>
<path d="M8.33325 8.04004H12.7333" stroke="black" stroke-width="0.9" stroke-linecap="round" stroke-linejoin="round"/>
<path d="M9.80005 11.64H14.2" stroke="black" stroke-width="0.9" stroke-linecap="round" stroke-linejoin="round"/>
<path d="M9.80005 15.24H14.2" stroke="black" stroke-width="0.9" stroke-linecap="round" stroke-linejoin="round"/>
<path d="M6.5 6.23999H22.6333" stroke="black" stroke-width="0.9" stroke-linecap="round" stroke-linejoin="round"/>
<path fill-rule="evenodd" clip-rule="evenodd" d="M8.33343 4.79994C8.33343 4.99866 8.16916 5.15994 7.96676 5.15994C7.76436 5.15994 7.6001 4.99866 7.6001 4.79994C7.6001 4.60122 7.76436 4.43994 7.96676 4.43994C8.16916 4.43994 8.33343 4.60122 8.33343 4.79994Z" fill="black"/>
<path fill-rule="evenodd" clip-rule="evenodd" d="M9.79998 4.79994C9.79998 4.99866 9.63572 5.15994 9.43332 5.15994C9.23092 5.15994 9.06665 4.99866 9.06665 4.79994C9.06665 4.60122 9.23092 4.43994 9.43332 4.43994C9.63572 4.43994 9.79998 4.60122 9.79998 4.79994Z" fill="black"/>
<path fill-rule="evenodd" clip-rule="evenodd" d="M11.2668 4.79994C11.2668 4.99866 11.1025 5.15994 10.9001 5.15994C10.6977 5.15994 10.5334 4.99866 10.5334 4.79994C10.5334 4.60122 10.6977 4.43994 10.9001 4.43994C11.1025 4.43994 11.2668 4.60122 11.2668 4.79994Z" fill="black"/>
<path fill-rule="evenodd" clip-rule="evenodd" d="M17.155 11.0621V12.2145H16.075V11.0621H17.155Z" stroke="black" stroke-width="0.72" stroke-linecap="round" stroke-linejoin="round"/>
<path fill-rule="evenodd" clip-rule="evenodd" d="M20.3949 11.0621V12.2145H19.3149V11.0621H20.3949Z" stroke="black" stroke-width="0.72" stroke-linecap="round" stroke-linejoin="round"/>
<path fill-rule="evenodd" clip-rule="evenodd" d="M20.3949 14.5193V15.6717H19.3149V14.5193H20.3949Z" stroke="black" stroke-width="0.72" stroke-linecap="round" stroke-linejoin="round"/>
<path fill-rule="evenodd" clip-rule="evenodd" d="M20.3949 7.60498V8.75736H19.3149V7.60498H20.3949Z" stroke="black" stroke-width="0.72" stroke-linecap="round" stroke-linejoin="round"/>
<path d="M17.155 11.6383H19.315" stroke="black" stroke-width="0.9" stroke-linecap="round" stroke-linejoin="round"/>
<path d="M19.3149 8.18115H18.2349V15.0954H19.3149" stroke="black" stroke-width="0.72" stroke-linecap="round" stroke-linejoin="round"/>
<path fill-rule="evenodd" clip-rule="evenodd" d="M8.33333 13.08C8.33333 13.8749 6.6914 14.52 4.66667 14.52C2.64193 14.52 1 13.8749 1 13.08C1 12.2851 2.64193 11.64 4.66667 11.64C6.6914 11.64 8.33333 12.2851 8.33333 13.08Z" stroke="black" stroke-width="0.72" stroke-linecap="round" stroke-linejoin="round"/>
<path d="M8.33333 13.08V19.56C8.33333 20.3548 6.6914 21 4.66667 21C2.64193 21 1 20.3548 1 19.56V13.08" stroke="black" stroke-width="0.72" stroke-linecap="round" stroke-linejoin="round"/>
<path d="M8.33333 15.24C8.33333 16.0349 6.6914 16.68 4.66667 16.68C2.64193 16.68 1 16.0349 1 15.24" stroke="black" stroke-width="0.72" stroke-linecap="round" stroke-linejoin="round"/>
<path d="M8.33333 17.4C8.33333 18.1949 6.6914 18.84 4.66667 18.84C2.64193 18.84 1 18.1949 1 17.4" stroke="black" stroke-width="0.72" stroke-linecap="round" stroke-linejoin="round"/>
</svg>
