<svg width="250" height="40" viewBox="0 0 250 40" fill="none" xmlns="http://www.w3.org/2000/svg">
<g clip-path="url(#clip0_10235_191802)">
<path d="M85.4323 8.11314C86.0789 6.99993 87.4276 6.41502 88.8317 6.41502C91.5105 6.41502 93.7091 8.39616 93.7091 11.5471C93.7091 14.6791 91.4551 16.698 88.7947 16.698C87.446 16.698 86.0604 16.0942 85.4138 14.9622V15.6225C85.4138 16.1508 85.0073 16.6037 84.4531 16.6037C83.9358 16.6037 83.5293 16.1508 83.5293 15.6225V3.99993C83.5293 3.47163 83.9358 3.0188 84.4531 3.0188C84.9888 3.0188 85.4138 3.47163 85.4138 3.99993V8.11314H85.4323ZM88.6469 14.8301C90.3836 14.8301 91.7692 13.4716 91.7692 11.5282C91.7692 9.56597 90.3836 8.30182 88.6469 8.30182C87.095 8.30182 85.4323 9.41502 85.4323 11.5282C85.4507 13.6414 86.9287 14.8301 88.6469 14.8301Z" fill="#FAFCFD"/>
<path d="M103.131 14.9812C102.485 16.0944 101.081 16.7171 99.7323 16.7171C97.0903 16.7171 94.8179 14.6793 94.8179 11.5661C94.8179 8.41521 97.0718 6.43408 99.7323 6.43408C101.081 6.43408 102.485 7.00012 103.131 8.1322V7.52842C103.131 7.00012 103.538 6.54729 104.055 6.54729C104.591 6.54729 105.016 7.00012 105.016 7.52842V15.6605C105.016 16.1888 104.609 16.6416 104.055 16.6416C103.538 16.6416 103.131 16.1888 103.131 15.6605V14.9812ZM99.917 8.30201C98.1804 8.30201 96.7762 9.56616 96.7762 11.5284C96.7762 13.4718 98.1804 14.8303 99.917 14.8303C101.635 14.8303 103.131 13.6227 103.131 11.5284C103.113 9.43408 101.469 8.30201 99.917 8.30201Z" fill="#FAFCFD"/>
<path d="M110.115 15.019C111.094 15.019 111.815 14.4907 111.815 13.7171C111.815 13.0001 111.26 12.6416 110.54 12.4718L109.21 12.151C107.584 11.6982 106.605 10.8869 106.605 9.32088C106.605 7.69823 108.027 6.43408 109.986 6.43408C111.242 6.43408 112.461 6.90578 113.034 8.03786C113.108 8.1888 113.145 8.35861 113.145 8.49069C113.145 9.1322 112.554 9.35861 112.258 9.35861C111.981 9.35861 111.778 9.20767 111.575 8.94352C111.131 8.35861 110.651 8.11333 110.041 8.11333C109.136 8.11333 108.526 8.6605 108.526 9.39635C108.526 10.0378 109.117 10.3963 109.746 10.5284L111.168 10.8869C113.182 11.3963 113.681 12.6416 113.681 13.7548C113.681 15.585 111.944 16.7171 109.93 16.7171C108.434 16.7171 106.9 15.868 106.457 14.3586C106.439 14.2454 106.42 14.151 106.42 14.0567C106.42 13.5473 106.9 13.302 107.325 13.302C107.658 13.302 107.99 13.4718 108.138 13.8492C108.378 14.5661 109.136 15.019 110.115 15.019Z" fill="#FAFCFD"/>
<path d="M123.38 12.302H116.267C116.489 13.9435 117.764 14.9812 119.39 14.9812C120.553 14.9812 121.182 14.6793 121.847 13.9435C122.198 13.5473 122.734 13.4152 123.103 13.6982C123.473 14.0001 123.565 14.5661 123.269 14.9058C122.346 16.1322 120.886 16.7171 119.316 16.7171C116.563 16.7171 114.364 14.6605 114.364 11.5473C114.364 8.41522 116.563 6.43408 119.316 6.43408C122.068 6.43408 124.119 8.41522 124.119 11.5473C124.119 11.9812 123.768 12.302 123.38 12.302ZM122.272 10.7926C122.05 9.15106 120.886 8.15106 119.334 8.15106C117.745 8.15106 116.507 9.15106 116.267 10.7926H122.272Z" fill="#FAFCFD"/>
<path d="M71.0032 19.7736C76.3499 19.7736 80.6842 15.3471 80.6842 9.88679C80.6842 4.42647 76.3499 0 71.0032 0C65.6566 0 61.3223 4.42647 61.3223 9.88679C61.3223 15.3471 65.6566 19.7736 71.0032 19.7736Z" fill="#EA4235"/>
<path d="M70.9849 16.6876C68.7039 16.6876 66.6987 14.8089 66.6987 12.4418C66.6987 10.9952 67.361 9.83044 68.6119 9.15411C67.8945 8.44021 67.4713 7.7263 67.4713 6.67423C67.4713 4.64524 68.9982 3.06714 70.9849 3.06714C72.9717 3.06714 74.5169 4.64524 74.5169 6.67423C74.5169 7.7263 74.0754 8.44021 73.358 9.15411C74.6089 9.83044 75.2712 10.9952 75.2712 12.4418C75.2528 14.8089 73.266 16.6876 70.9849 16.6876ZM70.9849 10.4316C69.8996 10.4316 69.0166 11.3333 69.0166 12.4418C69.0166 13.5502 69.8996 14.452 70.9849 14.452C72.0703 14.452 72.9533 13.5502 72.9533 12.4418C72.9533 11.3333 72.0703 10.4316 70.9849 10.4316ZM70.9849 5.30279C70.2307 5.30279 69.642 5.96033 69.642 6.71181C69.642 7.46329 70.2491 8.10204 70.9849 8.10204C71.7208 8.10204 72.3462 7.46329 72.3462 6.71181C72.3462 5.94154 71.7392 5.30279 70.9849 5.30279Z" fill="white"/>
<path d="M4.66 8.91915C4.66 9.49915 4.46 9.98248 4.06 10.3692C3.66667 10.7492 3.06333 10.9392 2.25 10.9392H0.91V13.8492H0V6.87915H2.25C3.03667 6.87915 3.63333 7.06915 4.04 7.44915C4.45333 7.82915 4.66 8.31915 4.66 8.91915ZM2.25 10.1892C2.75667 10.1892 3.13 10.0792 3.37 9.85915C3.61 9.63915 3.73 9.32581 3.73 8.91915C3.73 8.05915 3.23667 7.62915 2.25 7.62915H0.91V10.1892H2.25Z" fill="#FAFCFD"/>
<path d="M8.18117 13.9391C7.66783 13.9391 7.20117 13.8224 6.78117 13.5891C6.36783 13.3557 6.04117 13.0257 5.80117 12.5991C5.56783 12.1657 5.45117 11.6657 5.45117 11.0991C5.45117 10.5391 5.57117 10.0457 5.81117 9.61905C6.05783 9.18571 6.39117 8.85571 6.81117 8.62905C7.23117 8.39571 7.70117 8.27905 8.22117 8.27905C8.74117 8.27905 9.21117 8.39571 9.63117 8.62905C10.0512 8.85571 10.3812 9.18238 10.6212 9.60905C10.8679 10.0357 10.9912 10.5324 10.9912 11.0991C10.9912 11.6657 10.8645 12.1657 10.6112 12.5991C10.3645 13.0257 10.0279 13.3557 9.60117 13.5891C9.1745 13.8224 8.70117 13.9391 8.18117 13.9391ZM8.18117 13.1391C8.50783 13.1391 8.8145 13.0624 9.10117 12.9091C9.38783 12.7557 9.61783 12.5257 9.79117 12.2191C9.97117 11.9124 10.0612 11.5391 10.0612 11.0991C10.0612 10.6591 9.9745 10.2857 9.80117 9.97905C9.62783 9.67238 9.40117 9.44571 9.12117 9.29905C8.84117 9.14571 8.53783 9.06905 8.21117 9.06905C7.87783 9.06905 7.57117 9.14571 7.29117 9.29905C7.01783 9.44571 6.79783 9.67238 6.63117 9.97905C6.4645 10.2857 6.38117 10.6591 6.38117 11.0991C6.38117 11.5457 6.46117 11.9224 6.62117 12.2291C6.78783 12.5357 7.00783 12.7657 7.28117 12.9191C7.5545 13.0657 7.8545 13.1391 8.18117 13.1391Z" fill="#FAFCFD"/>
<path d="M19.4876 8.36914L17.7776 13.8492H16.8376L15.5176 9.49914L14.1976 13.8492H13.2576L11.5376 8.36914H12.4676L13.7276 12.9692L15.0876 8.36914H16.0176L17.3476 12.9792L18.5876 8.36914H19.4876Z" fill="#FAFCFD"/>
<path d="M25.3908 10.8991C25.3908 11.0724 25.3808 11.2557 25.3608 11.4491H20.9808C21.0142 11.9891 21.1975 12.4124 21.5308 12.7191C21.8708 13.0191 22.2808 13.1691 22.7608 13.1691C23.1542 13.1691 23.4808 13.0791 23.7408 12.8991C24.0075 12.7124 24.1942 12.4657 24.3008 12.1591H25.2808C25.1342 12.6857 24.8408 13.1157 24.4008 13.4491C23.9608 13.7757 23.4142 13.9391 22.7608 13.9391C22.2408 13.9391 21.7742 13.8224 21.3608 13.5891C20.9542 13.3557 20.6342 13.0257 20.4008 12.5991C20.1675 12.1657 20.0508 11.6657 20.0508 11.0991C20.0508 10.5324 20.1642 10.0357 20.3908 9.60905C20.6175 9.18238 20.9342 8.85571 21.3408 8.62905C21.7542 8.39571 22.2275 8.27905 22.7608 8.27905C23.2808 8.27905 23.7408 8.39238 24.1408 8.61905C24.5408 8.84571 24.8475 9.15905 25.0608 9.55905C25.2808 9.95238 25.3908 10.3991 25.3908 10.8991ZM24.4508 10.7091C24.4508 10.3624 24.3742 10.0657 24.2208 9.81905C24.0675 9.56571 23.8575 9.37571 23.5908 9.24905C23.3308 9.11571 23.0408 9.04905 22.7208 9.04905C22.2608 9.04905 21.8675 9.19571 21.5408 9.48905C21.2208 9.78238 21.0375 10.1891 20.9908 10.7091H24.4508Z" fill="#FAFCFD"/>
<path d="M27.5018 9.25904C27.6618 8.9457 27.8885 8.70237 28.1818 8.52904C28.4818 8.3557 28.8451 8.26904 29.2718 8.26904V9.20904H29.0318C28.0118 9.20904 27.5018 9.76237 27.5018 10.8691V13.8491H26.5918V8.36904H27.5018V9.25904Z" fill="#FAFCFD"/>
<path d="M35.3224 10.8991C35.3224 11.0724 35.3124 11.2557 35.2924 11.4491H30.9124C30.9457 11.9891 31.129 12.4124 31.4624 12.7191C31.8024 13.0191 32.2124 13.1691 32.6924 13.1691C33.0857 13.1691 33.4124 13.0791 33.6724 12.8991C33.939 12.7124 34.1257 12.4657 34.2324 12.1591H35.2124C35.0657 12.6857 34.7724 13.1157 34.3324 13.4491C33.8924 13.7757 33.3457 13.9391 32.6924 13.9391C32.1724 13.9391 31.7057 13.8224 31.2924 13.5891C30.8857 13.3557 30.5657 13.0257 30.3324 12.5991C30.099 12.1657 29.9824 11.6657 29.9824 11.0991C29.9824 10.5324 30.0957 10.0357 30.3224 9.60905C30.549 9.18238 30.8657 8.85571 31.2724 8.62905C31.6857 8.39571 32.159 8.27905 32.6924 8.27905C33.2124 8.27905 33.6724 8.39238 34.0724 8.61905C34.4724 8.84571 34.779 9.15905 34.9924 9.55905C35.2124 9.95238 35.3224 10.3991 35.3224 10.8991ZM34.3824 10.7091C34.3824 10.3624 34.3057 10.0657 34.1524 9.81905C33.999 9.56571 33.789 9.37571 33.5224 9.24905C33.2624 9.11571 32.9724 9.04905 32.6524 9.04905C32.1924 9.04905 31.799 9.19571 31.4724 9.48905C31.1524 9.78238 30.969 10.1891 30.9224 10.7091H34.3824Z" fill="#FAFCFD"/>
<path d="M36.1836 11.089C36.1836 10.529 36.297 10.039 36.5236 9.61897C36.7503 9.1923 37.0603 8.8623 37.4536 8.62897C37.8536 8.39563 38.3003 8.27898 38.7936 8.27898C39.2203 8.27898 39.617 8.37897 39.9836 8.57897C40.3503 8.7723 40.6303 9.02897 40.8236 9.34897V6.44897H41.7436V13.849H40.8236V12.819C40.6436 13.1456 40.377 13.4156 40.0236 13.629C39.6703 13.8356 39.257 13.939 38.7836 13.939C38.297 13.939 37.8536 13.819 37.4536 13.579C37.0603 13.339 36.7503 13.0023 36.5236 12.569C36.297 12.1356 36.1836 11.6423 36.1836 11.089ZM40.8236 11.099C40.8236 10.6856 40.7403 10.3256 40.5736 10.019C40.407 9.7123 40.1803 9.47897 39.8936 9.31897C39.6136 9.1523 39.3036 9.06897 38.9636 9.06897C38.6236 9.06897 38.3136 9.14897 38.0336 9.30897C37.7536 9.46897 37.5303 9.7023 37.3636 10.009C37.197 10.3156 37.1136 10.6756 37.1136 11.089C37.1136 11.509 37.197 11.8756 37.3636 12.189C37.5303 12.4956 37.7536 12.7323 38.0336 12.899C38.3136 13.059 38.6236 13.139 38.9636 13.139C39.3036 13.139 39.6136 13.059 39.8936 12.899C40.1803 12.7323 40.407 12.4956 40.5736 12.189C40.7403 11.8756 40.8236 11.5123 40.8236 11.099Z" fill="#FAFCFD"/>
<path d="M46.8573 9.38897C47.0439 9.0623 47.3173 8.79563 47.6773 8.58897C48.0373 8.3823 48.4473 8.27898 48.9073 8.27898C49.4006 8.27898 49.8439 8.39563 50.2373 8.62897C50.6306 8.8623 50.9406 9.1923 51.1673 9.61897C51.3939 10.039 51.5073 10.529 51.5073 11.089C51.5073 11.6423 51.3939 12.1356 51.1673 12.569C50.9406 13.0023 50.6273 13.339 50.2273 13.579C49.8339 13.819 49.3939 13.939 48.9073 13.939C48.4339 13.939 48.0173 13.8356 47.6573 13.629C47.3039 13.4223 47.0373 13.159 46.8573 12.839V13.849H45.9473V6.44897H46.8573V9.38897ZM50.5773 11.089C50.5773 10.6756 50.4939 10.3156 50.3273 10.009C50.1606 9.7023 49.9339 9.46897 49.6473 9.30897C49.3673 9.14897 49.0573 9.06897 48.7173 9.06897C48.3839 9.06897 48.0739 9.1523 47.7873 9.31897C47.5073 9.47897 47.2806 9.71564 47.1073 10.029C46.9406 10.3356 46.8573 10.6923 46.8573 11.099C46.8573 11.5123 46.9406 11.8756 47.1073 12.189C47.2806 12.4956 47.5073 12.7323 47.7873 12.899C48.0739 13.059 48.3839 13.139 48.7173 13.139C49.0573 13.139 49.3673 13.059 49.6473 12.899C49.9339 12.7323 50.1606 12.4956 50.3273 12.189C50.4939 11.8756 50.5773 11.509 50.5773 11.089Z" fill="#FAFCFD"/>
<path d="M57.4252 8.36914L54.1252 16.4292H53.1852L54.2652 13.7892L52.0552 8.36914H53.0652L54.7852 12.8092L56.4852 8.36914H57.4252Z" fill="#FAFCFD"/>
</g>
<defs>
<clipPath id="clip0_10235_191802">
<rect width="250" height="40" fill="white"/>
</clipPath>
</defs>
</svg>
