<svg width="176px" height="176px" viewBox="0 0 30 30" fill="none" xmlns="http://www.w3.org/2000/svg" preserveAspectRatio="none">
<circle cx="15" cy="15" r="15" fill="#D83F37"/>
<path fill-rule="evenodd" clip-rule="evenodd" d="M15 8.03185C13.8163 8.03185 12.9017 9.02757 12.9017 10.1841C12.9017 11.3413 13.8431 12.3096 15 12.3096C16.1571 12.3096 17.1254 11.3413 17.1254 10.1841C17.1254 9.00043 16.1837 8.03185 15 8.03185ZM15 15.8341C13.3051 15.8341 11.9331 17.2061 11.9331 18.901C11.9331 20.5961 13.3051 21.9679 15 21.9679C16.6951 21.9679 18.0671 20.5961 18.0671 18.901C18.0671 17.2061 16.6951 15.8341 15 15.8341ZM15 25.3576C11.4489 25.3576 8.35486 22.5061 8.35486 18.901C8.35486 16.695 9.37743 14.9193 11.3143 13.897C10.2114 12.821 9.53857 11.7179 9.53857 10.1304C9.53857 7.03671 11.906 4.64243 15 4.64243C18.094 4.64243 20.4883 7.03671 20.4883 10.1304C20.4883 11.7447 19.7889 12.821 18.6857 13.897C20.6229 14.9193 21.6451 16.695 21.6451 18.901C21.6451 22.5061 18.5514 25.3576 15 25.3576Z" fill="#FFFFFE"/>
</svg>